<svg width="18" height="20" viewBox="0 0 18 20" fill="none" xmlns="http://www.w3.org/2000/svg">
<path opacity="0.01" d="M17 2V18H1L1 2L17 2Z" fill="black"/>
<path d="M13.1787 16.3967C13.0697 16.3971 12.9622 16.3717 12.8652 16.3226L9.38978 14.5247L5.91437 16.3226C5.68413 16.4423 5.40504 16.4219 5.19504 16.2702C4.98504 16.1185 4.88076 15.8619 4.92626 15.6089L5.60771 11.8178L2.80012 9.12436C2.62162 8.94835 2.55608 8.68931 2.62976 8.451C2.71033 8.20685 2.92443 8.02925 3.18173 7.99311L7.06602 7.43422L8.77648 3.97986C8.89034 3.74755 9.12857 3.60001 9.38978 3.60001C9.651 3.60001 9.88923 3.74755 10.0031 3.97986L11.734 7.42748L15.6183 7.98638C15.8756 8.02251 16.0897 8.20012 16.1703 8.44426C16.2439 8.68258 16.1784 8.94161 15.9999 9.11763L13.1923 11.8111L13.8738 15.6021C13.9234 15.8599 13.817 16.1227 13.6012 16.2755C13.4778 16.3609 13.3292 16.4036 13.1787 16.3967Z" fill="#444449"/>
</svg>
