<svg width="18" height="17" viewBox="0 0 18 17" fill="none" xmlns="http://www.w3.org/2000/svg">
<path d="M9 6.10938C9.47282 6.10938 9.93502 5.96917 10.3282 5.70648C10.7213 5.4438 11.0277 5.07043 11.2086 4.6336C11.3896 4.19677 11.4369 3.7161 11.3447 3.25236C11.2524 2.78863 11.0248 2.36266 10.6904 2.02832C10.3561 1.69399 9.93012 1.4663 9.46639 1.37406C9.00265 1.28182 8.52198 1.32916 8.08515 1.5101C7.64832 1.69104 7.27495 1.99745 7.01227 2.39059C6.74958 2.78373 6.60938 3.24593 6.60938 3.71875C6.60938 4.35278 6.86124 4.96085 7.30957 5.40918C7.7579 5.85751 8.36597 6.10938 9 6.10938ZM9 2.92188C9.15761 2.92188 9.31167 2.96861 9.44272 3.05617C9.57377 3.14374 9.6759 3.26819 9.73622 3.4138C9.79653 3.55941 9.81231 3.71964 9.78156 3.87421C9.75082 4.02879 9.67492 4.17078 9.56348 4.28223C9.45203 4.39367 9.31004 4.46957 9.15546 4.50031C9.00088 4.53106 8.84066 4.51528 8.69505 4.45497C8.54944 4.39465 8.42498 4.29252 8.33742 4.16147C8.24986 4.03043 8.20312 3.87636 8.20312 3.71875C8.20312 3.50741 8.28708 3.30472 8.43652 3.15528C8.58597 3.00583 8.78866 2.92188 9 2.92188ZM3.42188 6.375C3.42188 6.11232 3.49977 5.85554 3.6457 5.63713C3.79164 5.41873 3.99907 5.2485 4.24175 5.14797C4.48443 5.04745 4.75147 5.02115 5.0091 5.0724C5.26674 5.12364 5.50338 5.25013 5.68913 5.43587C5.87487 5.62162 6.00136 5.85827 6.05261 6.1159C6.10385 6.37353 6.07755 6.64057 5.97703 6.88325C5.8765 7.12594 5.70628 7.33336 5.48787 7.4793C5.26946 7.62523 5.01268 7.70313 4.75 7.70313C4.39776 7.70313 4.05995 7.5632 3.81087 7.31413C3.5618 7.06506 3.42188 6.72724 3.42188 6.375ZM15.6406 7.54375C15.6411 7.69418 15.5991 7.84169 15.5192 7.9692C15.4394 8.09672 15.3252 8.19905 15.1896 8.26434C15.0541 8.32964 14.9029 8.35524 14.7534 8.33818C14.604 8.32113 14.4624 8.26212 14.345 8.16797C14.345 8.16797 12.9505 7.14 10.8029 8.18656C10.7804 8.50199 10.7365 8.91305 10.6615 9.38188L12.6975 11.0786C12.8204 11.1811 12.9096 11.3183 12.9535 11.4723C12.9973 11.6263 12.9937 11.7899 12.9432 11.9418L11.8807 15.1293C11.8496 15.2311 11.7985 15.3255 11.7304 15.4072C11.6622 15.4888 11.5784 15.556 11.4839 15.6048C11.3894 15.6536 11.2861 15.6829 11.18 15.6911C11.074 15.6993 10.9674 15.6862 10.8665 15.6525C10.7656 15.6189 10.6724 15.5654 10.5926 15.4952C10.5127 15.425 10.4476 15.3395 10.4013 15.2438C10.355 15.148 10.3283 15.044 10.3228 14.9378C10.3173 14.8316 10.3331 14.7253 10.3693 14.6253L11.2578 11.9531L10.2325 11.0991C10.1237 11.421 9.99689 11.7365 9.85266 12.0441C8.88047 14.1027 7.24023 15.4926 4.97711 16.1713C4.90337 16.1929 4.82686 16.2037 4.75 16.2031C4.55846 16.2035 4.37319 16.1348 4.22813 16.0097C4.08307 15.8847 3.98792 15.7115 3.9601 15.522C3.93228 15.3325 3.97365 15.1393 4.07663 14.9778C4.17962 14.8163 4.33734 14.6973 4.5209 14.6426C7.03371 13.8889 8.55641 12.072 9.06375 9.23445C7.47 10.1336 6.20098 10.3634 5.31445 10.3634C4.82801 10.3603 4.34547 10.2762 3.88672 10.1143C3.70036 10.0245 3.55627 9.86561 3.48491 9.6714C3.41356 9.47719 3.42054 9.26284 3.50438 9.07368C3.58822 8.88453 3.74234 8.7354 3.93416 8.65783C4.12597 8.58026 4.34043 8.58034 4.53219 8.65805C4.56074 8.66934 6.22023 9.2909 9.08102 7.34586C12.7141 4.87688 15.3405 6.92219 15.3405 6.92219C15.4339 6.99666 15.5094 7.09119 15.5613 7.19878C15.6133 7.30638 15.6404 7.42427 15.6406 7.54375Z" fill="#444449"/>
</svg>
