<svg width="18" height="20" viewBox="0 0 18 20" fill="none" xmlns="http://www.w3.org/2000/svg">
<path fill-rule="evenodd" clip-rule="evenodd" d="M15.1506 18H2.85429C1.83211 18 1.00271 17.1728 1 16.1506V3.85429C1 2.83019 1.83019 2 2.85429 2H15.1506C16.1728 2.00271 17 2.83211 17 3.85429V16.1506C16.9973 17.1709 16.1709 17.9973 15.1506 18ZM2.85428 2.89028C2.311 2.89028 1.87058 3.3307 1.87058 3.87399V16.1703C1.87058 16.7136 2.311 17.154 2.85428 17.154H15.1506C15.6939 17.154 16.1343 16.7136 16.1343 16.1703V3.87399C16.1343 3.3307 15.6939 2.89028 15.1506 2.89028H2.85428Z" fill="white"/>
<path fill-rule="evenodd" clip-rule="evenodd" d="M13.5088 9.2311H4.49295C4.24309 9.20686 4.05347 9.01365 4.05347 8.7833C4.05347 8.55295 4.24309 8.35974 4.49295 8.3355H12.33L10.6381 6.74442C10.4692 6.56481 10.4811 6.2958 10.6655 6.12939C10.8499 5.96299 11.1435 5.95626 11.3367 6.114L13.8526 8.47059C13.9919 8.59796 14.0336 8.78973 13.9583 8.9563C13.883 9.12288 13.7055 9.23138 13.5088 9.2311ZM4.49295 10.7371H13.5088V10.7421C13.7801 10.7421 14 10.9437 14 11.1924C14 11.4411 13.7801 11.6427 13.5088 11.6427H5.64449L7.3527 13.2338C7.54351 13.4095 7.54351 13.6935 7.3527 13.8692C7.26158 13.953 7.13788 14 7.00888 14C6.87988 14 6.75617 13.953 6.66505 13.8692L4.14367 11.5176C4.0015 11.3836 3.96066 11.1846 4.03997 11.0123C4.11798 10.8463 4.29575 10.7383 4.49295 10.7371Z" fill="white"/>
</svg>
