<svg width="19" height="20" viewBox="0 0 19 20" fill="none" xmlns="http://www.w3.org/2000/svg">
<path d="M4.09898 9.5C7.63363 9.5 10.5789 6.89209 11.2024 3.4605L12.0784 4.35845C12.1951 4.47813 12.3483 4.53828 12.5015 4.53828C12.6547 4.53828 12.8078 4.47813 12.9245 4.35845C13.1585 4.11846 13.1585 3.72995 12.9245 3.49058L11.1539 1.67505C11.1485 1.66952 11.1413 1.66829 11.1366 1.66277C11.0863 1.61428 11.0294 1.57193 10.9636 1.54309C10.9624 1.54247 10.9606 1.54247 10.9594 1.54186C10.9511 1.53879 10.9433 1.53879 10.9355 1.53572C10.8763 1.51362 10.817 1.50258 10.756 1.50012C10.7344 1.49951 10.7141 1.50135 10.6926 1.50258C10.6423 1.50565 10.5944 1.51547 10.5472 1.53142C10.5268 1.53818 10.5071 1.54309 10.4873 1.55229C10.4245 1.58114 10.3646 1.61735 10.3138 1.66829L8.46897 3.5096C8.23201 3.74591 8.22662 4.13504 8.457 4.37748C8.68798 4.62053 9.06675 4.62544 9.30311 4.38975L9.90389 3.78948C9.18583 6.37346 6.85513 8.27185 4.09838 8.27185C3.76808 8.27185 3.5 8.54682 3.5 8.88562C3.5 9.22442 3.76867 9.5 4.09898 9.5Z" fill="#444449"/>
<path fill-rule="evenodd" clip-rule="evenodd" d="M14.3734 4.92108H16.9616C17.3175 4.92108 17.6053 5.22572 17.6053 5.60108V17.8057C17.6053 17.8204 17.6017 17.8338 17.5982 17.8472C17.5955 17.8572 17.5929 17.8673 17.5917 17.8778V18.5H1.5V1.5H2.78734V17.14H3.43101V12.3589C3.43101 11.9829 3.71937 11.6789 4.07468 11.6789H6.66288C7.01818 11.6789 7.30655 11.9829 7.30655 12.3589V17.14H8.58037V9.66C8.58037 9.28464 8.86873 8.98 9.22404 8.98H11.8122C12.1682 8.98 12.4559 9.28464 12.4559 9.66V17.14H13.7297V5.60108C13.7297 5.22572 14.0174 4.92108 14.3734 4.92108ZM4.71834 17.1258H6.0192V13.039H4.71834V17.1258ZM11.1686 17.1257H9.86771V10.34H11.1686V17.1257ZM15.0171 17.1257H16.3179V6.28102H15.0171V17.1257Z" fill="#444449"/>
</svg>
